<svg xmlns="http://www.w3.org/2000/svg" viewBox="0 0 512 512">
  <defs>
    <linearGradient id="bg" x1="0" y1="0" x2="0" y2="1">
      <stop offset="0" stop-color="#1b2030"/>
      <stop offset="1" stop-color="#0d1018"/>
    </linearGradient>
    <linearGradient id="spk" x1="0" y1="0" x2="1" y2="1">
      <stop offset="0" stop-color="#5b98ff"/>
      <stop offset="1" stop-color="#4d8eff"/>
    </linearGradient>
  </defs>
  <rect x="0" y="0" width="512" height="512" rx="112" fill="url(#bg)"/>
  <rect x="6" y="6" width="500" height="500" rx="108" fill="none" stroke="#ffffff" stroke-opacity="0.06" stroke-width="2"/>
  <g fill="none" stroke="url(#spk)" stroke-width="26" stroke-linecap="round" stroke-linejoin="round">
    <path d="M150 196 H206 L286 134 V378 L206 316 H150 A14 14 0 0 1 136 302 V210 A14 14 0 0 1 150 196 Z" fill="url(#spk)" stroke="none"/>
    <path d="M330 200 a72 72 0 0 1 0 112"/>
    <path d="M364 166 a120 120 0 0 1 0 180"/>
  </g>
</svg>
